<svg xmlns="http://www.w3.org/2000/svg" id="Layer_1" width="5in" height="5in" data-name="Layer 1" viewBox="0 0 360 360"><path d="M181.6 98.3L70 191.4a14.2 14.2 0 0 1-19.9-1.7l-1.6-1.8a14.2 14.2 0 0 1 2.1-20.3L179.9 66.2A14.1 14.1 0 0 1 197 66l134.7 101.6A14.2 14.2 0 0 1 334 188l-1.5 1.8a14.2 14.2 0 0 1-19.7 2L195.3 98.1a10.8 10.8 0 0 0-13.7.2z"/><path d="M191.3 110.5L90.6 190.2a15.7 15.7 0 0 0-5.9 12.3V285a8.9 8.9 0 0 0 8.9 8.9H157a8.9 8.9 0 0 0 8.9-8.9l.4-48.9a9.8 9.8 0 0 1 10.1-9.7l27.8.7a9.8 9.8 0 0 1 9.6 9.8v51a8.9 8.9 0 0 0 8.9 8.9h64.5a8.9 8.9 0 0 0 8.9-8.9v-85.5a15.7 15.7 0 0 0-5.8-12.2z"/></svg>