<svg xmlns="http://www.w3.org/2000/svg"><symbol id="paw" viewBox="0 0 360 360"><path d="M173.7 168.3s41.1-16.5 56.8 18.1c0 0 8 16.6 29.3 18.8a21.7 21.7 0 0 1 16.1 9.8c7.5 11.7 12.9 32.8-19 56.2 0 0-82.3 37-118.5 19.7 0 0-37-29.6-8.2-51 0 0 18-9.7 12.1-29.7a27.4 27.4 0 0 1 .8-18.8c3.6-8.4 12-18.6 30.6-23.1zm-75.2 4.5s-19.4-9.3-26.4-17.1c0 0-17.4-15.1-26.9 3.7a35.8 35.8 0 0 0-2.8 23.3c2.8 13.9 11.3 37.8 35.9 40.5 0 0 39.6-1.9 32.6-36.6 0 0-5.6-10.3-12.4-13.8zm44.2-79.9S129.5 75 131.9 68c0 0 3.3-13.1-9.9-17.9-9.1-3.3-19.1.3-25.1 7.9-8 10.2-16.7 28.4-7 53.6 4.1 10.5 13.6 18.2 24.9 19.2 7.2.6 15.8-1.4 24.8-9.2 0 0 12.8-12 3.1-28.7zm11.7-55.1s37.4-21 58.5 23.9c5.3 11.3 4.9 24.7-1.8 35.1-5.5 8.5-15.2 15.5-32.5 12.5a18.3 18.3 0 0 1-15.1-15.9 62.1 62.1 0 0 1 .7-15.9 15.9 15.9 0 0 0-2.2-10.8c-4.1-6.4-9.7-17.9-7.6-28.9zm94.7 75.9a72 72 0 0 0 3.8-7.6c3.1-7.3 10.8-21.8 20.2-16.4 11 6.2 28 7.7 26.5 44-.6 13.4-8.4 25.7-20.7 31a29.5 29.5 0 0 1-17.1 2.3c-15.7-2.8-25-19.3-20.6-34.6a83.5 83.5 0 0 1 7.9-18.7z"/></symbol><symbol id="check" viewBox="0 0 360 360"><path d="M257.3 89.2c-30.6-5-108.6 94.6-108.6 94.6s-41.1-24.1-52-14.3c0 0-7.4 3.7 6.8 19.3s46.5 65.7 46.5 65.7 6.5 5 10.5-7 38.8-95.1 101.5-147.4c0 0 4.9-9.3-4.7-10.9z"/></symbol><symbol id="x" viewBox="0 0 360 360"><path d="M179.5 122.4s-19.4-43.3-41-51.2c0 0-23-2.6-14.4 28.5s18 49.9 14.8 69.2L85 236.3s-2.6 6.6 6.9 17.4l13.8 19.7s45-44.6 49.5-55.1c0 0 27.6 22.6 43.3 42.3 0 0 3.3 3.6 15.7-19 0 0 10.2-10.2-.3-20.8a29.9 29.9 0 0 1-3.8-4.6c-5.6-8.6-18.2-30.1-11.6-43.8s27.1-52.2 44.5-66c5.4-4.3 7.9-11.6 5.2-18-1.9-4.5-6.1-8.9-14.6-10.8 0-.1-14.1 4.2-54.1 44.8z"/></symbol><symbol id="home" viewBox="0 0 360 360"><path d="M181.6 98.3L70 191.4a14.2 14.2 0 0 1-19.9-1.7l-1.6-1.8a14.2 14.2 0 0 1 2.1-20.3L179.9 66.2A14.1 14.1 0 0 1 197 66l134.7 101.6A14.2 14.2 0 0 1 334 188l-1.5 1.8a14.2 14.2 0 0 1-19.7 2L195.3 98.1a10.8 10.8 0 0 0-13.7.2z"/><path d="M191.3 110.5L90.6 190.2a15.7 15.7 0 0 0-5.9 12.3V285a8.9 8.9 0 0 0 8.9 8.9H157a8.9 8.9 0 0 0 8.9-8.9l.4-48.9a9.8 9.8 0 0 1 10.1-9.7l27.8.7a9.8 9.8 0 0 1 9.6 9.8v51a8.9 8.9 0 0 0 8.9 8.9h64.5a8.9 8.9 0 0 0 8.9-8.9v-85.5a15.7 15.7 0 0 0-5.8-12.2z"/></symbol></svg>