<?xml version="1.0" encoding="utf-8"?>
<!-- Generator: Adobe Illustrator 21.0.2, SVG Export Plug-In . SVG Version: 6.00 Build 0)  -->
<svg version="1.1" id="Layer_1" xmlns="http://www.w3.org/2000/svg" xmlns:xlink="http://www.w3.org/1999/xlink" x="0px" y="0px"
	 viewBox="0 0 72 76.6" style="enable-background:new 0 0 72 76.6;" xml:space="preserve">
<style type="text/css">
	.st0{fill:none;}
	.st1{fill:#99B2DD;}
	.st2{fill:#3A405A;}
	.st3{fill:#0083CA;}
</style>
<g>
	<title>logo-64</title>
	<g>
		<path class="st0" d="M60,41c-0.1,0.1-0.1,0.1-0.2,0.2C59.9,41.1,60,41,60,41z"/>
		<path class="st0" d="M61.7,37.6C61.7,37.6,61.7,37.7,61.7,37.6C61.7,37.7,61.7,37.6,61.7,37.6z"/>
		<path class="st0" d="M60.4,40.6c-0.1,0.1-0.1,0.1-0.2,0.2C60.3,40.7,60.3,40.7,60.4,40.6z"/>
		<path class="st0" d="M60.7,40.3c0,0.1-0.1,0.1-0.1,0.2C60.6,40.4,60.6,40.4,60.7,40.3z"/>
		<path class="st0" d="M61.8,37.7C61.8,37.8,61.8,37.8,61.8,37.7C61.8,37.8,61.8,37.8,61.8,37.7z"/>
		<path class="st0" d="M58.7,42c-0.1,0.1-0.2,0.1-0.3,0.2C58.6,42.1,58.7,42,58.7,42z"/>
		<path class="st0" d="M61.7,37.5C61.7,37.5,61.7,37.5,61.7,37.5C61.7,37.5,61.7,37.5,61.7,37.5z"/>
		<path class="st0" d="M59.6,41.3c-0.1,0.1-0.1,0.1-0.2,0.2C59.5,41.4,59.6,41.3,59.6,41.3z"/>
		<path class="st0" d="M59.2,41.6c-0.1,0.1-0.2,0.1-0.2,0.2C59.1,41.7,59.1,41.7,59.2,41.6z"/>
		<path class="st0" d="M61.8,37.9C61.8,37.9,61.8,38,61.8,37.9C61.8,38,61.8,37.9,61.8,37.9z"/>
		<path class="st0" d="M61.6,38.7c0,0,0,0.1,0,0.1C61.6,38.8,61.6,38.8,61.6,38.7z"/>
		<path class="st0" d="M61.5,39c0,0,0,0.1-0.1,0.1C61.5,39,61.5,39,61.5,39z"/>
		<path class="st0" d="M60.9,40c0,0-0.1,0.1-0.1,0.1C60.8,40.1,60.9,40.1,60.9,40z"/>
		<path class="st0" d="M61.7,38.3c0,0,0,0.1,0,0.1C61.7,38.4,61.7,38.3,61.7,38.3z"/>
		<path class="st0" d="M61.8,38.1C61.8,38.1,61.8,38.2,61.8,38.1C61.8,38.2,61.8,38.1,61.8,38.1z"/>
		<path class="st0" d="M61.7,38.5c0,0,0,0.1,0,0.1C61.7,38.6,61.7,38.5,61.7,38.5z"/>
		<path class="st0" d="M58.2,42.3c-0.1,0.1-0.2,0.1-0.3,0.2C58,42.4,58.1,42.4,58.2,42.3z"/>
		<path class="st0" d="M61.4,39.2c0,0,0,0.1-0.1,0.1C61.4,39.3,61.4,39.3,61.4,39.2z"/>
		<path class="st0" d="M61.1,39.7c0,0-0.1,0.1-0.1,0.1C61,39.8,61.1,39.8,61.1,39.7z"/>
		<path class="st0" d="M61.3,39.5c0,0-0.1,0.1-0.1,0.1C61.2,39.6,61.3,39.5,61.3,39.5z"/>
		<path class="st0" d="M61.6,37.2C61.6,37.2,61.6,37.2,61.6,37.2C61.6,37.2,61.6,37.2,61.6,37.2z"/>
		<path class="st0" d="M49.3,45.2C49.3,45.2,49.3,45.2,49.3,45.2C49.3,45.2,49.3,45.2,49.3,45.2C49.3,45.2,49.3,45.2,49.3,45.2
			C49.3,45.2,49.3,45.2,49.3,45.2z"/>
		<path class="st0" d="M55.5,43.8c-0.1,0.1-0.3,0.1-0.4,0.2C55.2,43.9,55.3,43.9,55.5,43.8z"/>
		<path class="st0" d="M48.5,44.8c-0.1-0.1-0.1-0.1-0.2-0.2C48.4,44.6,48.4,44.7,48.5,44.8z"/>
		<path class="st0" d="M54.6,44.2c-0.2,0.1-0.3,0.1-0.5,0.2C54.3,44.3,54.5,44.2,54.6,44.2z"/>
		<path class="st0" d="M53.3,44.7c0.1-0.1,0.2-0.1,0.4-0.1C53.6,44.6,53.4,44.7,53.3,44.7C53.3,44.7,53.3,44.7,53.3,44.7z"/>
		<path class="st0" d="M61.6,37.1C61.6,37.1,61.6,37.1,61.6,37.1C61.6,37.1,61.6,37.1,61.6,37.1z"/>
		<path class="st0" d="M61.6,37.1C61.6,37.1,61.6,37.1,61.6,37.1C61.6,37.1,61.6,37.1,61.6,37.1z"/>
		<path class="st0" d="M57.6,42.7c-0.1,0.1-0.2,0.1-0.3,0.2C57.4,42.8,57.5,42.7,57.6,42.7z"/>
		<path class="st0" d="M61.7,37.4C61.7,37.4,61.7,37.4,61.7,37.4C61.7,37.4,61.7,37.4,61.7,37.4z"/>
		<path class="st0" d="M56.2,43.4c-0.1,0.1-0.3,0.1-0.4,0.2C56,43.5,56.1,43.5,56.2,43.4z"/>
		<path class="st0" d="M61.7,37.3C61.7,37.3,61.7,37.3,61.7,37.3C61.7,37.3,61.7,37.3,61.7,37.3z"/>
		<path class="st0" d="M57,43c-0.1,0.1-0.2,0.1-0.4,0.2C56.7,43.2,56.8,43.1,57,43z"/>
		<path class="st1" d="M60.6,52.3L53.3,59L36.1,74.8l-0.5-0.5l-1.3-1.4c0.8-1.8,2.1-3.4,2.3-5.4c0-0.1,0-0.3,0-0.4
			c0.1-0.9-0.1-1.8-0.5-2.6c-0.6-1.2-1.6-2.2-2.9-2.8c-0.8-0.3-1.7-0.4-2.5-0.6c-2.3-0.3-4.3,0.1-5.7-1.9c-0.7-1.1-1.2-2.4-1.6-3.6
			c-0.3-1.3,2.1-3.3,2.1-3.3c1.5-0.5,2.5-4.9,2.5-4.9c0.5-1.1,1.5-2,2.5-2.5c1.2-0.6,2.8-0.4,3.1-2c0.3-1.3-0.1-2.7-0.3-3.9
			c-0.1-0.7-0.3-1.5-0.5-2.2c-0.1-0.6-0.1-1.8-0.5-2.3c0.3,0.5,2.4,0.8,3,1.1c1,0.4,1.8,0.9,2.6,1.6c1.6,1.4,2.8,3.2,4.6,4.4
			c1.4,1.1,3.2,1.6,4.8,2.5c0.3,0.1,0.5,0.3,0.8,0.5c0.1,0,0.1,0.1,0.2,0.2c0.1,0.1,0.3,0.2,0.4,0.3c0.1,0,0.1,0.1,0.2,0.1
			c0.1,0,0.1,0,0.2,0h0l0.2,0c1.2,0.2,2.4,0,3.5-0.4c0.1,0,0.1-0.1,0.2-0.1c0.1,0,0.3-0.1,0.4-0.2c0.2-0.1,0.3-0.1,0.5-0.2
			c0.2-0.1,0.3-0.1,0.5-0.2c0.1-0.1,0.3-0.1,0.4-0.2c0.1-0.1,0.3-0.1,0.4-0.2c0.1-0.1,0.3-0.1,0.4-0.2c0.1-0.1,0.3-0.1,0.4-0.2
			c0.1-0.1,0.2-0.1,0.4-0.2c0.1-0.1,0.2-0.1,0.4-0.2c0.1-0.1,0.2-0.1,0.3-0.2c0.1-0.1,0.2-0.1,0.3-0.2c0.1-0.1,0.2-0.1,0.3-0.2
			c0.1-0.1,0.2-0.1,0.3-0.2l0.3-0.2c0.1-0.1,0.2-0.1,0.3-0.2l0.2-0.2c0.1-0.1,0.2-0.1,0.2-0.2c0.1-0.1,0.1-0.1,0.2-0.2
			c0.1-0.1,0.1-0.1,0.2-0.2c0.1-0.1,0.1-0.1,0.2-0.2C59.9,41.1,60,41,60,41c0.1-0.1,0.1-0.1,0.2-0.2c0.1,0,0.1-0.1,0.2-0.2
			c0.1,0,0.1-0.1,0.1-0.1c0-0.1,0.1-0.1,0.1-0.2c0,0,0.1-0.1,0.1-0.1c0,0,0.1-0.1,0.1-0.1c0,0,0.1-0.1,0.1-0.1c0,0,0.1-0.1,0.1-0.1
			c0,0,0.1-0.1,0.1-0.1c0,0,0.1-0.1,0.1-0.1c0,0,0.1-0.1,0.1-0.1c0,0,0-0.1,0.1-0.1c0,0,0-0.1,0.1-0.1c0,0,0-0.1,0.1-0.1
			c0,0,0-0.1,0-0.1c0,0,0-0.1,0-0.1c0,0,0-0.1,0-0.1c0,0,0-0.1,0-0.1c0,0,0-0.1,0-0.1c0,0,0-0.1,0-0.1c0,0,0-0.1,0-0.1v-0.1
			c0,0,0-0.1,0-0.1v-0.2c0,0,0-0.1,0-0.1v-0.1c0,0,0-0.1,0-0.1c0,0,0,0,0-0.1c0,0,0,0,0-0.1c0,0,0,0,0,0c0,0,0,0,0-0.1c0,0,0,0,0,0
			c0,0,0,0,0,0c0,0,0,0,0,0c0,0,0,0,0,0c0,0,0,0,0,0c0,0,0,0,0,0c0,0,0,0,0,0c0,0,0,0,0,0c-1.1-0.7-7.9-4.9-9.9-5.5
			c-2-0.6-2.9-4.6-2.9-4.6c-0.1-1.6-5.2-4.6-7.1-5.7c-0.3-0.2-0.7-0.3-1.1-0.4c-0.9-0.2-3-1.3-2-8c0,0,0.9-5.1-2-5.9
			c0,0-0.7,0.2,0,2.3c0.4,1.1-1.7,3.7-2.2,4.4c-0.9,1.2-2.2,2.2-3,3.6c-0.8,1.4-1,2.8-2.2,3.9c-1.2,1-2.3,2.2-3.4,3.3
			c-1.1,1.2-2,1.5-3.1,2.2c-3.5,2.2-4.7,5.9-6.4,9.6l-1.3,2.8C14,41,13.1,42.9,12.6,45c-0.1,0.3-0.1,0.6-0.2,0.8
			c-0.3,1.7-0.1,3.3,0.1,4.9l-0.3-0.3c0,0-16.3-17-3.1-47.3h55.1C74.4,40.7,60.6,52.3,60.6,52.3z"/>
		<path class="st2" d="M61.8,37.8V38c0,0,0,0.1,0,0.1v0.1c0,0,0,0.1,0,0.1c0,0,0,0.1,0,0.1c0,0,0,0.1,0,0.1c0,0,0,0.1,0,0.1
			c0,0,0,0.1,0,0.1c0,0,0,0.1,0,0.1c0,0,0,0.1,0,0.1c0,0,0,0.1-0.1,0.1c0,0,0,0.1-0.1,0.1c0,0,0,0.1-0.1,0.1c0,0-0.1,0.1-0.1,0.1
			c0,0-0.1,0.1-0.1,0.1c0,0-0.1,0.1-0.1,0.1c0,0-0.1,0.1-0.1,0.1c0,0-0.1,0.1-0.1,0.1c0,0.1-0.1,0.1-0.1,0.1c0,0.1-0.1,0.1-0.1,0.1
			c0,0.1-0.1,0.1-0.1,0.2c0,0-0.1,0.1-0.1,0.1c-0.1,0.1-0.1,0.1-0.2,0.2c-0.1,0.1-0.1,0.1-0.2,0.2c-0.1,0.1-0.1,0.1-0.2,0.2
			c-0.1,0-0.1,0.1-0.2,0.2c-0.1,0.1-0.1,0.1-0.2,0.2c-0.1,0-0.1,0.1-0.2,0.2c-0.1,0.1-0.2,0.1-0.2,0.2L58.7,42
			c-0.1,0.1-0.2,0.1-0.3,0.2l-0.3,0.2c-0.1,0.1-0.2,0.1-0.3,0.2c-0.1,0.1-0.2,0.1-0.3,0.2c-0.1,0.1-0.2,0.1-0.3,0.2
			c-0.1,0.1-0.2,0.1-0.3,0.2c-0.1,0.1-0.2,0.1-0.4,0.2c-0.1,0.1-0.2,0.1-0.4,0.2c-0.1,0.1-0.3,0.1-0.4,0.2c-0.1,0.1-0.3,0.1-0.4,0.2
			c-0.1,0.1-0.3,0.1-0.4,0.2c-0.1,0.1-0.3,0.1-0.4,0.2c-0.2,0.1-0.3,0.1-0.5,0.2c-0.1,0.1-0.3,0.1-0.5,0.2c-0.1,0.1-0.3,0.1-0.4,0.2
			c-1.3,0.5-2.6,0.7-4,0.5h0c-0.2,0-0.3-0.1-0.4-0.2c-0.1-0.1-0.2-0.2-0.4-0.3c-0.1-0.1-0.1-0.1-0.2-0.2c-0.3-0.2-0.5-0.3-0.8-0.5
			c-1.6-0.8-3.3-1.4-4.8-2.5c-1.7-1.2-2.9-3.1-4.6-4.4c-0.8-0.7-1.6-1.2-2.6-1.6c-0.6-0.3-2.7-0.6-3-1.1c0.4,0.5,0.3,1.6,0.5,2.3
			c0.2,0.7,0.3,1.4,0.5,2.2c0.2,1.3,0.5,2.6,0.3,3.9c-0.3,1.6-2,1.4-3.1,2c-1.1,0.6-2,1.4-2.5,2.5c0,0-1,4.4-2.5,4.9
			c0,0-2.5,1.9-2.1,3.3c0.3,1.3,0.8,2.5,1.6,3.6c1.4,2.1,3.4,1.6,5.7,1.9c0.9,0.1,1.7,0.2,2.5,0.6c1.3,0.5,2.3,1.5,2.9,2.8
			c0.4,0.8,0.6,1.7,0.5,2.6c0,0.1,0,0.3,0,0.4c-0.3,2-1.6,3.6-2.3,5.4L12.6,50.7c-0.2-1.6-0.4-3.2-0.1-4.9c0-0.3,0.1-0.6,0.2-0.8
			c0.5-2.1,1.4-4,2.3-5.9l1.3-2.8c1.7-3.7,2.9-7.4,6.4-9.6c1.1-0.7,2-1,3.1-2.2c1.1-1.2,2.2-2.3,3.4-3.3c1.3-1.1,1.4-2.6,2.2-3.9
			c0.8-1.3,2.1-2.4,3-3.6c0.6-0.7,2.6-3.4,2.2-4.4c-0.8-2.1,0-2.3,0-2.3c2.9,0.9,2,5.9,2,5.9c-1,6.7,1.1,7.8,2,8
			c0.4,0.1,0.7,0.2,1.1,0.4c1.9,1.1,7,4,7.1,5.7c0,0,0.9,4,2.9,4.6c2,0.6,8.8,4.8,9.9,5.5c0,0,0,0,0,0c0,0,0,0,0,0c0,0,0,0,0,0
			c0,0,0,0,0,0c0,0,0,0,0,0c0,0,0,0,0,0c0,0,0,0,0,0c0,0,0,0,0,0c0,0,0,0,0,0.1c0,0,0,0,0,0c0,0,0,0,0,0.1c0,0,0,0,0,0.1
			c0,0,0,0,0,0.1L61.8,37.8C61.8,37.8,61.8,37.8,61.8,37.8z"/>
		<path class="st3" d="M61.6,37.1C61.6,37.1,61.6,37.1,61.6,37.1C61.6,37.1,61.6,37.1,61.6,37.1z"/>
		<path class="st3" d="M61.7,38.4c0,0,0,0.1,0,0.1C61.7,38.5,61.7,38.4,61.7,38.4z"/>
		<path class="st3" d="M61.7,37.3C61.7,37.3,61.7,37.3,61.7,37.3C61.7,37.3,61.7,37.3,61.7,37.3z"/>
		<path class="st3" d="M61.7,37.4C61.7,37.4,61.7,37.4,61.7,37.4C61.7,37.4,61.7,37.4,61.7,37.4z"/>
		<path class="st3" d="M61.7,38.2C61.7,38.2,61.7,38.3,61.7,38.2C61.7,38.3,61.7,38.2,61.7,38.2z"/>
		<path class="st3" d="M61.6,37.2C61.6,37.2,61.6,37.2,61.6,37.2C61.6,37.2,61.6,37.2,61.6,37.2z"/>
		<path class="st3" d="M61.6,37.2C61.6,37.2,61.6,37.2,61.6,37.2C61.6,37.2,61.6,37.2,61.6,37.2z"/>
		<path class="st3" d="M61.8,37.7C61.8,37.7,61.8,37.7,61.8,37.7C61.8,37.7,61.8,37.7,61.8,37.7z"/>
		<path class="st3" d="M61.8,37.8C61.8,37.9,61.8,37.9,61.8,37.8C61.8,37.9,61.8,37.9,61.8,37.8z"/>
		<path class="st3" d="M61.7,37.5C61.7,37.6,61.7,37.6,61.7,37.5C61.7,37.6,61.7,37.6,61.7,37.5z"/>
		<path class="st3" d="M61.8,38C61.8,38,61.8,38.1,61.8,38C61.8,38.1,61.8,38,61.8,38z"/>
		<path class="st3" d="M60.2,40.8c-0.1,0.1-0.1,0.1-0.2,0.2C60.1,40.9,60.1,40.9,60.2,40.8z"/>
		<path class="st3" d="M55,44c-0.1,0.1-0.3,0.1-0.4,0.2C54.7,44.1,54.9,44,55,44z"/>
		<path class="st3" d="M55.8,43.6c-0.1,0.1-0.3,0.1-0.4,0.2C55.6,43.7,55.7,43.7,55.8,43.6z"/>
		<path class="st3" d="M56.6,43.2c-0.1,0.1-0.2,0.1-0.4,0.2C56.4,43.3,56.5,43.3,56.6,43.2z"/>
		<path class="st3" d="M57.3,42.9C57.2,42.9,57.1,43,57,43C57.1,43,57.2,42.9,57.3,42.9z"/>
		<path class="st3" d="M57.9,42.5c-0.1,0.1-0.2,0.1-0.3,0.2C57.7,42.6,57.8,42.6,57.9,42.5z"/>
		<path class="st3" d="M58.5,42.1c-0.1,0.1-0.2,0.1-0.3,0.2C58.3,42.3,58.4,42.2,58.5,42.1z"/>
		<path class="st3" d="M54.1,44.4c-0.1,0.1-0.3,0.1-0.5,0.2C53.8,44.5,54,44.4,54.1,44.4z"/>
		<path class="st3" d="M49.3,45.2c0.1,0,0.1,0,0.2,0c1.2,0.2,2.4,0,3.5-0.4c0.1,0,0.2-0.1,0.2-0.1C52,45.2,50.7,45.4,49.3,45.2z"/>
		<path class="st3" d="M48.5,44.8c0.2,0.1,0.4,0.3,0.5,0.4c0.1,0,0.2,0,0.2,0c-0.2,0-0.3-0.1-0.4-0.2C48.8,44.9,48.6,44.8,48.5,44.8
			z"/>
		<path class="st3" d="M48.3,44.6c-0.2-0.2-0.5-0.3-0.8-0.5C47.8,44.3,48,44.4,48.3,44.6z"/>
		<path class="st3" d="M61.6,38.8c0,0,0,0.1,0,0.1C61.6,38.9,61.6,38.9,61.6,38.8z"/>
		<path class="st3" d="M61.2,39.6c0,0-0.1,0.1-0.1,0.1C61.1,39.7,61.2,39.7,61.2,39.6z"/>
		<path class="st3" d="M61,39.9c0,0-0.1,0.1-0.1,0.1C60.9,40,61,39.9,61,39.9z"/>
		<path class="st3" d="M61.4,39.3c0,0-0.1,0.1-0.1,0.1C61.3,39.4,61.3,39.4,61.4,39.3z"/>
		<path class="st3" d="M61.7,38.6c0,0,0,0.1,0,0.1C61.6,38.7,61.7,38.6,61.7,38.6z"/>
		<path class="st3" d="M61.5,39.1c0,0,0,0.1-0.1,0.1C61.5,39.2,61.5,39.1,61.5,39.1z"/>
		<path class="st3" d="M60.8,40.2c0,0-0.1,0.1-0.1,0.1C60.7,40.3,60.7,40.2,60.8,40.2z"/>
		<path class="st3" d="M59.4,41.5c-0.1,0.1-0.1,0.1-0.2,0.2C59.3,41.6,59.4,41.5,59.4,41.5z"/>
		<path class="st3" d="M59,41.8c-0.1,0.1-0.2,0.1-0.2,0.2C58.8,41.9,58.9,41.8,59,41.8z"/>
		<path class="st3" d="M59.8,41.1c-0.1,0.1-0.1,0.1-0.2,0.2C59.7,41.2,59.8,41.2,59.8,41.1z"/>
		<path class="st3" d="M60.5,40.5c0,0-0.1,0.1-0.1,0.1C60.4,40.6,60.5,40.5,60.5,40.5z"/>
	</g>
</g>
</svg>
