<?xml version="1.0" encoding="utf-8"?>
<!-- Generator: Adobe Illustrator 21.0.2, SVG Export Plug-In . SVG Version: 6.00 Build 0)  -->
<svg version="1.1" id="Layer_1" xmlns="http://www.w3.org/2000/svg" xmlns:xlink="http://www.w3.org/1999/xlink" x="0px" y="0px"
	 viewBox="0 0 21.6 21.6" style="enable-background:new 0 0 21.6 21.6;" xml:space="preserve">
<style type="text/css">
	.st0{fill:none;}
	.st1{fill:#99B2DD;}
	.st2{fill:#3A405A;}
	.st3{fill:#0083CA;}
</style>
<title>logo-16</title>
<g>
	<path class="st0" d="M17.1,12C17,12,17,12,17.1,12C17,12,17,12,17.1,12z"/>
	<path class="st0" d="M17.5,11.2C17.5,11.2,17.5,11.2,17.5,11.2C17.5,11.2,17.5,11.2,17.5,11.2z"/>
	<path class="st0" d="M17.1,11.9C17.1,11.9,17.1,12,17.1,11.9C17.1,12,17.1,11.9,17.1,11.9z"/>
	<path class="st0" d="M17.2,11.9C17.2,11.9,17.2,11.9,17.2,11.9C17.2,11.9,17.2,11.9,17.2,11.9z"/>
	<path class="st0" d="M17.5,11.2C17.5,11.2,17.5,11.2,17.5,11.2C17.5,11.2,17.5,11.2,17.5,11.2z"/>
	<path class="st0" d="M16.7,12.3C16.7,12.3,16.7,12.3,16.7,12.3C16.7,12.3,16.7,12.3,16.7,12.3z"/>
	<path class="st0" d="M17.5,11.1C17.5,11.1,17.5,11.1,17.5,11.1C17.5,11.1,17.5,11.1,17.5,11.1z"/>
	<path class="st0" d="M17,12.1C17,12.1,16.9,12.1,17,12.1C16.9,12.1,17,12.1,17,12.1z"/>
	<path class="st0" d="M16.9,12.2C16.8,12.2,16.8,12.2,16.9,12.2C16.8,12.2,16.8,12.2,16.9,12.2z"/>
	<path class="st0" d="M17.5,11.2C17.5,11.3,17.5,11.3,17.5,11.2C17.5,11.3,17.5,11.3,17.5,11.2z"/>
	<path class="st0" d="M17.5,11.4C17.5,11.5,17.5,11.5,17.5,11.4C17.5,11.5,17.5,11.5,17.5,11.4z"/>
	<path class="st0" d="M17.4,11.5C17.4,11.5,17.4,11.5,17.4,11.5C17.4,11.5,17.4,11.5,17.4,11.5z"/>
	<path class="st0" d="M17.3,11.8C17.3,11.8,17.3,11.8,17.3,11.8C17.3,11.8,17.3,11.8,17.3,11.8z"/>
	<path class="st0" d="M17.5,11.3C17.5,11.4,17.5,11.4,17.5,11.3C17.5,11.4,17.5,11.4,17.5,11.3z"/>
	<path class="st0" d="M17.5,11.3C17.5,11.3,17.5,11.3,17.5,11.3C17.5,11.3,17.5,11.3,17.5,11.3z"/>
	<path class="st0" d="M17.5,11.4C17.5,11.4,17.5,11.4,17.5,11.4C17.5,11.4,17.5,11.4,17.5,11.4z"/>
	<path class="st0" d="M16.6,12.3C16.6,12.4,16.6,12.4,16.6,12.3C16.6,12.4,16.6,12.4,16.6,12.3z"/>
	<path class="st0" d="M17.4,11.6C17.4,11.6,17.4,11.6,17.4,11.6C17.4,11.6,17.4,11.6,17.4,11.6z"/>
	<path class="st0" d="M17.3,11.7C17.3,11.7,17.3,11.7,17.3,11.7C17.3,11.7,17.3,11.7,17.3,11.7z"/>
	<path class="st0" d="M17.4,11.6C17.4,11.6,17.4,11.7,17.4,11.6C17.4,11.7,17.4,11.6,17.4,11.6z"/>
	<path class="st0" d="M17.5,11.1C17.5,11.1,17.5,11.1,17.5,11.1C17.5,11.1,17.5,11.1,17.5,11.1z"/>
	<ellipse transform="matrix(0.1201 -0.9928 0.9928 0.1201 -0.3175 25.777)" class="st0" cx="14.4" cy="13.1" rx="0" ry="0"/>
	<path class="st0" d="M15.9,12.7c0,0-0.1,0-0.1,0C15.9,12.7,15.9,12.7,15.9,12.7z"/>
	<path class="st0" d="M14.2,13C14.2,12.9,14.1,12.9,14.2,13C14.1,12.9,14.2,12.9,14.2,13z"/>
	<path class="st0" d="M15.7,12.8c0,0-0.1,0-0.1,0C15.6,12.8,15.7,12.8,15.7,12.8z"/>
	<path class="st0" d="M15.4,12.9C15.4,12.9,15.4,12.9,15.4,12.9C15.4,12.9,15.4,12.9,15.4,12.9C15.4,12.9,15.4,12.9,15.4,12.9z"/>
	<path class="st0" d="M17.4,11C17.4,11,17.5,11,17.4,11C17.5,11,17.4,11,17.4,11z"/>
	<path class="st0" d="M17.5,11C17.5,11.1,17.5,11.1,17.5,11C17.5,11.1,17.5,11.1,17.5,11z"/>
	<path class="st0" d="M16.5,12.4C16.4,12.5,16.4,12.5,16.5,12.4C16.4,12.5,16.4,12.5,16.5,12.4z"/>
	<path class="st0" d="M17.5,11.1C17.5,11.1,17.5,11.1,17.5,11.1C17.5,11.1,17.5,11.1,17.5,11.1z"/>
	<path class="st0" d="M16.1,12.6C16.1,12.6,16.1,12.7,16.1,12.6C16.1,12.7,16.1,12.6,16.1,12.6z"/>
	<path class="st0" d="M17.5,11.1C17.5,11.1,17.5,11.1,17.5,11.1C17.5,11.1,17.5,11.1,17.5,11.1z"/>
	<path class="st0" d="M16.3,12.5C16.3,12.5,16.2,12.6,16.3,12.5C16.2,12.6,16.3,12.5,16.3,12.5z"/>
	<path class="st1" d="M17.2,14.8l-1.8,1.7l-4.3,3.9L11,20.3L10.6,20c0.2-0.5,0.5-0.9,0.6-1.4c0,0,0-0.1,0-0.1c0-0.2,0-0.5-0.1-0.7
		c-0.1-0.3-0.4-0.6-0.7-0.7c-0.2-0.1-0.4-0.1-0.6-0.1c-0.6-0.1-1.1,0-1.4-0.5C8.1,16.3,8,16,7.9,15.7c-0.1-0.3,0.5-0.8,0.5-0.8
		c0.4-0.1,0.6-1.2,0.6-1.2c0.1-0.3,0.4-0.5,0.6-0.6c0.3-0.2,0.7-0.1,0.8-0.5c0.1-0.3,0-0.7-0.1-1c0-0.2-0.1-0.4-0.1-0.5
		c0-0.2,0-0.4-0.1-0.6c0.1,0.1,0.6,0.2,0.8,0.3c0.2,0.1,0.5,0.2,0.7,0.4c0.4,0.3,0.7,0.8,1.1,1.1c0.4,0.3,0.8,0.4,1.2,0.6
		c0.1,0,0.1,0.1,0.2,0.1c0,0,0,0,0.1,0c0,0,0.1,0,0.1,0.1c0,0,0,0,0,0c0,0,0,0,0.1,0h0l0.1,0c0.3,0,0.6,0,0.9-0.1c0,0,0,0,0.1,0
		c0,0,0.1,0,0.1,0c0,0,0.1,0,0.1,0c0,0,0.1,0,0.1-0.1c0,0,0.1,0,0.1,0c0,0,0.1,0,0.1,0c0,0,0.1,0,0.1,0c0,0,0.1,0,0.1,0
		c0,0,0.1,0,0.1,0c0,0,0.1,0,0.1,0c0,0,0.1,0,0.1,0c0,0,0.1,0,0.1,0c0,0,0.1,0,0.1,0c0,0,0.1,0,0.1,0l0.1,0c0,0,0,0,0.1,0l0.1,0
		c0,0,0,0,0.1,0c0,0,0,0,0.1,0c0,0,0,0,0.1,0c0,0,0,0,0,0c0,0,0,0,0,0c0,0,0,0,0,0c0,0,0,0,0,0c0,0,0,0,0,0c0,0,0,0,0,0c0,0,0,0,0,0
		c0,0,0,0,0,0c0,0,0,0,0,0c0,0,0,0,0,0c0,0,0,0,0,0c0,0,0,0,0,0c0,0,0,0,0,0c0,0,0,0,0,0c0,0,0,0,0,0c0,0,0,0,0,0c0,0,0,0,0,0
		c0,0,0,0,0,0c0,0,0,0,0,0c0,0,0,0,0,0c0,0,0,0,0,0c0,0,0,0,0,0c0,0,0,0,0,0v0c0,0,0,0,0,0v0c0,0,0,0,0,0v0c0,0,0,0,0,0c0,0,0,0,0,0
		c0,0,0,0,0,0c0,0,0,0,0,0c0,0,0,0,0,0c0,0,0,0,0,0c0,0,0,0,0,0c0,0,0,0,0,0c0,0,0,0,0,0c0,0,0,0,0,0c0,0,0,0,0,0c0,0,0,0,0,0
		c0,0,0,0,0,0c-0.3-0.2-2-1.2-2.5-1.4s-0.7-1.2-0.7-1.2c0-0.4-1.3-1.2-1.8-1.4c-0.1,0-0.2-0.1-0.3-0.1c-0.2,0-0.8-0.3-0.5-2
		c0,0,0.2-1.3-0.5-1.5c0,0-0.2,0,0,0.6c0.1,0.3-0.4,0.9-0.6,1.1c-0.2,0.3-0.6,0.6-0.8,0.9c-0.2,0.3-0.2,0.7-0.6,1
		C9.1,7.3,8.8,7.6,8.5,7.9C8.2,8.2,8,8.3,7.7,8.4C6.8,9,6.6,9.9,6.1,10.8l-0.3,0.7c-0.2,0.5-0.5,1-0.6,1.5c0,0.1,0,0.1,0,0.2
		c-0.1,0.4,0,0.8,0,1.2l-0.1-0.1c0,0-4.1-4.2-0.8-11.8h13.8C20.7,12,17.2,14.8,17.2,14.8z"/>
	<path class="st2" d="M17.5,11.2L17.5,11.2C17.5,11.3,17.5,11.3,17.5,11.2L17.5,11.2c0,0.1,0,0.1,0,0.1c0,0,0,0,0,0c0,0,0,0,0,0
		c0,0,0,0,0,0c0,0,0,0,0,0c0,0,0,0,0,0c0,0,0,0,0,0c0,0,0,0,0,0c0,0,0,0,0,0c0,0,0,0,0,0c0,0,0,0,0,0c0,0,0,0,0,0c0,0,0,0,0,0
		c0,0,0,0,0,0c0,0,0,0,0,0c0,0,0,0,0,0c0,0,0,0,0,0c0,0,0,0,0,0c0,0,0,0,0,0c0,0,0,0,0,0c0,0,0,0,0,0c0,0,0,0,0,0c0,0,0,0,0,0
		c0,0,0,0-0.1,0c0,0,0,0-0.1,0c0,0,0,0-0.1,0l-0.1,0c0,0,0,0-0.1,0l-0.1,0c0,0,0,0-0.1,0c0,0,0,0-0.1,0c0,0-0.1,0-0.1,0
		c0,0-0.1,0-0.1,0c0,0-0.1,0-0.1,0c0,0-0.1,0-0.1,0c0,0-0.1,0-0.1,0c0,0-0.1,0-0.1,0c0,0-0.1,0-0.1,0c0,0-0.1,0-0.1,0
		c0,0-0.1,0-0.1,0.1c0,0-0.1,0-0.1,0c0,0-0.1,0-0.1,0c-0.3,0.1-0.7,0.2-1,0.1h0c0,0-0.1,0-0.1,0c0,0-0.1,0-0.1-0.1c0,0,0,0-0.1,0
		c-0.1,0-0.1-0.1-0.2-0.1c-0.4-0.2-0.8-0.4-1.2-0.6c-0.4-0.3-0.7-0.8-1.1-1.1c-0.2-0.2-0.4-0.3-0.7-0.4c-0.1-0.1-0.7-0.2-0.8-0.3
		c0.1,0.1,0.1,0.4,0.1,0.6c0,0.2,0.1,0.4,0.1,0.5c0.1,0.3,0.1,0.7,0.1,1c-0.1,0.4-0.5,0.3-0.8,0.5c-0.3,0.1-0.5,0.3-0.6,0.6
		c0,0-0.2,1.1-0.6,1.2c0,0-0.6,0.5-0.5,0.8C8,16,8.1,16.3,8.3,16.6c0.3,0.5,0.9,0.4,1.4,0.5c0.2,0,0.4,0.1,0.6,0.1
		c0.3,0.1,0.6,0.4,0.7,0.7c0.1,0.2,0.1,0.4,0.1,0.7c0,0,0,0.1,0,0.1c-0.1,0.5-0.4,0.9-0.6,1.4l-5.4-5.6c-0.1-0.4-0.1-0.8,0-1.2
		c0-0.1,0-0.1,0-0.2c0.1-0.5,0.4-1,0.6-1.5l0.3-0.7C6.6,9.9,6.8,9,7.7,8.4C8,8.3,8.2,8.2,8.5,7.9c0.3-0.3,0.6-0.6,0.9-0.8
		c0.3-0.3,0.4-0.6,0.6-1c0.2-0.3,0.5-0.6,0.8-0.9c0.1-0.2,0.7-0.8,0.6-1.1c-0.2-0.5,0-0.6,0-0.6C11.9,3.7,11.7,5,11.7,5
		c-0.3,1.7,0.3,2,0.5,2c0.1,0,0.2,0.1,0.3,0.1c0.5,0.3,1.8,1,1.8,1.4c0,0,0.2,1,0.7,1.2s2.2,1.2,2.5,1.4c0,0,0,0,0,0c0,0,0,0,0,0
		c0,0,0,0,0,0c0,0,0,0,0,0c0,0,0,0,0,0c0,0,0,0,0,0c0,0,0,0,0,0c0,0,0,0,0,0c0,0,0,0,0,0C17.5,11.1,17.5,11.1,17.5,11.2
		C17.5,11.1,17.5,11.1,17.5,11.2C17.5,11.2,17.5,11.2,17.5,11.2C17.5,11.2,17.5,11.2,17.5,11.2L17.5,11.2
		C17.5,11.2,17.5,11.2,17.5,11.2z"/>
	<path class="st3" d="M17.5,11C17.5,11,17.5,11,17.5,11C17.5,11,17.5,11,17.5,11z"/>
	<path class="st3" d="M17.5,11.4C17.5,11.4,17.5,11.4,17.5,11.4C17.5,11.4,17.5,11.4,17.5,11.4z"/>
	<path class="st3" d="M17.5,11.1C17.5,11.1,17.5,11.1,17.5,11.1C17.5,11.1,17.5,11.1,17.5,11.1z"/>
	<path class="st3" d="M17.5,11.1C17.5,11.1,17.5,11.1,17.5,11.1C17.5,11.1,17.5,11.1,17.5,11.1z"/>
	<path class="st3" d="M17.5,11.3C17.5,11.3,17.5,11.3,17.5,11.3C17.5,11.3,17.5,11.3,17.5,11.3z"/>
	<path class="st3" d="M17.5,11.1C17.5,11.1,17.5,11.1,17.5,11.1C17.5,11.1,17.5,11.1,17.5,11.1z"/>
	<path class="st3" d="M17.5,11.1C17.5,11.1,17.5,11.1,17.5,11.1C17.5,11.1,17.5,11.1,17.5,11.1z"/>
	<path class="st3" d="M17.5,11.2C17.5,11.2,17.5,11.2,17.5,11.2C17.5,11.2,17.5,11.2,17.5,11.2z"/>
	<path class="st3" d="M17.5,11.2C17.5,11.2,17.5,11.2,17.5,11.2C17.5,11.2,17.5,11.2,17.5,11.2z"/>
	<path class="st3" d="M17.5,11.2C17.5,11.2,17.5,11.2,17.5,11.2C17.5,11.2,17.5,11.2,17.5,11.2z"/>
	<path class="st3" d="M17.5,11.3C17.5,11.3,17.5,11.3,17.5,11.3C17.5,11.3,17.5,11.3,17.5,11.3z"/>
	<path class="st3" d="M17.1,12C17.1,12,17.1,12,17.1,12C17.1,12,17.1,12,17.1,12z"/>
	<path class="st3" d="M15.8,12.8c0,0-0.1,0-0.1,0C15.7,12.8,15.8,12.8,15.8,12.8z"/>
	<path class="st3" d="M16,12.7C16,12.7,16,12.7,16,12.7C16,12.7,16,12.7,16,12.7z"/>
	<path class="st3" d="M16.2,12.6C16.2,12.6,16.1,12.6,16.2,12.6C16.1,12.6,16.2,12.6,16.2,12.6z"/>
	<path class="st3" d="M16.4,12.5C16.4,12.5,16.3,12.5,16.4,12.5C16.3,12.5,16.4,12.5,16.4,12.5z"/>
	<path class="st3" d="M16.5,12.4C16.5,12.4,16.5,12.4,16.5,12.4C16.5,12.4,16.5,12.4,16.5,12.4z"/>
	<path class="st3" d="M16.7,12.3C16.7,12.3,16.6,12.3,16.7,12.3C16.6,12.3,16.7,12.3,16.7,12.3z"/>
	<path class="st3" d="M15.6,12.9c0,0-0.1,0-0.1,0C15.5,12.9,15.6,12.9,15.6,12.9z"/>
	<path class="st3" d="M14.4,13.1C14.4,13.1,14.4,13.1,14.4,13.1c0.3,0,0.7,0,0.9-0.1c0,0,0,0,0.1,0C15.1,13.1,14.7,13.1,14.4,13.1z"
		/>
	<path class="st3" d="M14.2,13c0,0,0.1,0.1,0.1,0.1c0,0,0,0,0.1,0C14.3,13.1,14.3,13,14.2,13C14.2,13,14.2,13,14.2,13z"/>
	<path class="st3" d="M14.1,12.9c-0.1,0-0.1-0.1-0.2-0.1C14,12.8,14.1,12.9,14.1,12.9z"/>
	<path class="st3" d="M17.5,11.5C17.5,11.5,17.4,11.5,17.5,11.5C17.4,11.5,17.5,11.5,17.5,11.5z"/>
	<path class="st3" d="M17.4,11.7C17.4,11.7,17.3,11.7,17.4,11.7C17.3,11.7,17.4,11.7,17.4,11.7z"/>
	<path class="st3" d="M17.3,11.7C17.3,11.8,17.3,11.8,17.3,11.7C17.3,11.8,17.3,11.8,17.3,11.7z"/>
	<path class="st3" d="M17.4,11.6C17.4,11.6,17.4,11.6,17.4,11.6C17.4,11.6,17.4,11.6,17.4,11.6z"/>
	<path class="st3" d="M17.5,11.4C17.5,11.4,17.5,11.4,17.5,11.4C17.5,11.4,17.5,11.4,17.5,11.4z"/>
	<path class="st3" d="M17.4,11.5C17.4,11.6,17.4,11.6,17.4,11.5C17.4,11.6,17.4,11.6,17.4,11.5z"/>
	<path class="st3" d="M17.3,11.8C17.2,11.8,17.2,11.8,17.3,11.8C17.2,11.8,17.2,11.8,17.3,11.8z"/>
	<path class="st3" d="M16.9,12.1C16.9,12.1,16.9,12.2,16.9,12.1C16.9,12.2,16.9,12.1,16.9,12.1z"/>
	<path class="st3" d="M16.8,12.2C16.8,12.2,16.8,12.2,16.8,12.2C16.8,12.2,16.8,12.2,16.8,12.2z"/>
	<path class="st3" d="M17,12C17,12.1,17,12.1,17,12C17,12.1,17,12.1,17,12z"/>
	<path class="st3" d="M17.2,11.9C17.2,11.9,17.2,11.9,17.2,11.9C17.2,11.9,17.2,11.9,17.2,11.9z"/>
</g>
</svg>
