<?xml version="1.0" encoding="utf-8"?>
<!-- Generator: Adobe Illustrator 21.0.2, SVG Export Plug-In . SVG Version: 6.00 Build 0)  -->
<svg version="1.1" id="Layer_1" xmlns="http://www.w3.org/2000/svg" xmlns:xlink="http://www.w3.org/1999/xlink" x="0px" y="0px"
	 viewBox="0 0 36 39" style="enable-background:new 0 0 36 39;" xml:space="preserve">
<style type="text/css">
	.st0{fill:none;}
	.st1{fill:#99B2DD;}
	.st2{fill:#3A405A;}
	.st3{fill:#0083CA;}
</style>
<title>logo-32</title>
<g>
	<path class="st0" d="M30,21C30,21.1,30,21.1,30,21C30,21.1,30,21.1,30,21z"/>
	<path class="st0" d="M30.9,19.4C30.9,19.4,30.9,19.4,30.9,19.4C30.9,19.4,30.9,19.4,30.9,19.4z"/>
	<path class="st0" d="M30.2,20.9C30.2,20.9,30.1,20.9,30.2,20.9C30.1,20.9,30.2,20.9,30.2,20.9z"/>
	<path class="st0" d="M30.3,20.7C30.3,20.8,30.3,20.8,30.3,20.7C30.3,20.8,30.3,20.8,30.3,20.7z"/>
	<path class="st0" d="M30.9,19.4C30.9,19.4,30.9,19.5,30.9,19.4C30.9,19.5,30.9,19.4,30.9,19.4z"/>
	<path class="st0" d="M29.4,21.5c0,0-0.1,0.1-0.1,0.1C29.3,21.6,29.3,21.6,29.4,21.5z"/>
	<path class="st0" d="M30.9,19.3C30.9,19.3,30.9,19.3,30.9,19.3C30.9,19.3,30.9,19.3,30.9,19.3z"/>
	<path class="st0" d="M29.8,21.2c0,0-0.1,0.1-0.1,0.1C29.8,21.3,29.8,21.2,29.8,21.2z"/>
	<path class="st0" d="M29.6,21.4c0,0-0.1,0.1-0.1,0.1C29.5,21.4,29.6,21.4,29.6,21.4z"/>
	<path class="st0" d="M30.9,19.5C30.9,19.5,30.9,19.5,30.9,19.5C30.9,19.5,30.9,19.5,30.9,19.5z"/>
	<path class="st0" d="M30.8,19.9C30.8,19.9,30.8,20,30.8,19.9C30.8,20,30.8,19.9,30.8,19.9z"/>
	<path class="st0" d="M30.8,20C30.8,20.1,30.8,20.1,30.8,20C30.8,20.1,30.8,20.1,30.8,20z"/>
	<path class="st0" d="M30.5,20.6C30.4,20.6,30.4,20.6,30.5,20.6C30.4,20.6,30.4,20.6,30.5,20.6z"/>
	<path class="st0" d="M30.9,19.7C30.9,19.7,30.9,19.7,30.9,19.7C30.9,19.7,30.9,19.7,30.9,19.7z"/>
	<path class="st0" d="M30.9,19.6C30.9,19.6,30.9,19.6,30.9,19.6C30.9,19.6,30.9,19.6,30.9,19.6z"/>
	<path class="st0" d="M30.8,19.8C30.8,19.8,30.8,19.8,30.8,19.8C30.8,19.8,30.8,19.8,30.8,19.8z"/>
	<path class="st0" d="M29.1,21.7c0,0-0.1,0.1-0.1,0.1C29,21.8,29.1,21.7,29.1,21.7z"/>
	<path class="st0" d="M30.7,20.2C30.7,20.2,30.7,20.2,30.7,20.2C30.7,20.2,30.7,20.2,30.7,20.2z"/>
	<path class="st0" d="M30.6,20.4C30.5,20.5,30.5,20.5,30.6,20.4C30.5,20.5,30.5,20.5,30.6,20.4z"/>
	<path class="st0" d="M30.6,20.3C30.6,20.3,30.6,20.3,30.6,20.3C30.6,20.3,30.6,20.3,30.6,20.3z"/>
	<path class="st0" d="M30.8,19.2C30.8,19.2,30.8,19.2,30.8,19.2C30.8,19.2,30.8,19.2,30.8,19.2z"/>
	<path class="st0" d="M24.6,23.2C24.6,23.2,24.7,23.2,24.6,23.2C24.7,23.2,24.7,23.2,24.6,23.2C24.7,23.2,24.6,23.2,24.6,23.2
		C24.6,23.2,24.6,23.2,24.6,23.2z"/>
	<path class="st0" d="M27.7,22.5c-0.1,0-0.1,0.1-0.2,0.1C27.6,22.5,27.7,22.5,27.7,22.5z"/>
	<path class="st0" d="M24.3,22.9c0,0-0.1-0.1-0.1-0.1C24.2,22.9,24.2,22.9,24.3,22.9z"/>
	<path class="st0" d="M27.3,22.6c-0.1,0-0.2,0.1-0.2,0.1C27.2,22.7,27.2,22.7,27.3,22.6z"/>
	<path class="st0" d="M26.7,22.9c0.1,0,0.1,0,0.2-0.1C26.8,22.9,26.7,22.9,26.7,22.9C26.6,22.9,26.7,22.9,26.7,22.9z"/>
	<path class="st0" d="M30.8,19.1C30.8,19.1,30.8,19.1,30.8,19.1C30.8,19.1,30.8,19.1,30.8,19.1z"/>
	<path class="st0" d="M30.8,19.1C30.8,19.1,30.8,19.1,30.8,19.1C30.8,19.1,30.8,19.1,30.8,19.1z"/>
	<path class="st0" d="M28.8,21.9c-0.1,0-0.1,0.1-0.2,0.1C28.7,22,28.8,21.9,28.8,21.9z"/>
	<path class="st0" d="M30.8,19.2C30.8,19.2,30.8,19.3,30.8,19.2C30.8,19.3,30.8,19.2,30.8,19.2z"/>
	<path class="st0" d="M28.1,22.3c-0.1,0-0.1,0.1-0.2,0.1C28,22.3,28.1,22.3,28.1,22.3z"/>
	<path class="st0" d="M30.8,19.2C30.8,19.2,30.8,19.2,30.8,19.2C30.8,19.2,30.8,19.2,30.8,19.2z"/>
	<path class="st0" d="M28.5,22.1c-0.1,0-0.1,0.1-0.2,0.1C28.4,22.1,28.4,22.1,28.5,22.1z"/>
	<path class="st1" d="M30.3,26.7l-3.6,3.3L18.1,38l-0.2-0.2L17.2,37c0.4-0.9,1-1.7,1.2-2.7c0-0.1,0-0.1,0-0.2c0-0.5-0.1-0.9-0.3-1.3
		c-0.3-0.6-0.8-1.1-1.4-1.4c-0.4-0.2-0.8-0.2-1.3-0.3c-1.1-0.2-2.2,0.1-2.9-1c-0.4-0.5-0.6-1.2-0.8-1.8c-0.2-0.7,1.1-1.6,1.1-1.6
		c0.7-0.3,1.2-2.5,1.2-2.5c0.3-0.6,0.7-1,1.3-1.3c0.6-0.3,1.4-0.2,1.6-1c0.1-0.7,0-1.3-0.1-2c-0.1-0.4-0.2-0.7-0.2-1.1
		c-0.1-0.3-0.1-0.9-0.2-1.1c0.2,0.2,1.2,0.4,1.5,0.6c0.5,0.2,0.9,0.5,1.3,0.8c0.8,0.7,1.4,1.6,2.3,2.2c0.7,0.5,1.6,0.8,2.4,1.2
		c0.1,0.1,0.3,0.1,0.4,0.2c0,0,0.1,0.1,0.1,0.1c0.1,0,0.1,0.1,0.2,0.1c0,0,0.1,0.1,0.1,0.1c0,0,0.1,0,0.1,0h0l0.1,0
		c0.6,0.1,1.2,0,1.8-0.2c0,0,0.1,0,0.1,0c0.1,0,0.1-0.1,0.2-0.1c0.1,0,0.2-0.1,0.2-0.1c0.1,0,0.2-0.1,0.2-0.1c0.1,0,0.1-0.1,0.2-0.1
		c0.1,0,0.1-0.1,0.2-0.1c0.1,0,0.1-0.1,0.2-0.1c0.1,0,0.1-0.1,0.2-0.1c0.1,0,0.1-0.1,0.2-0.1c0.1,0,0.1-0.1,0.2-0.1
		c0.1,0,0.1-0.1,0.2-0.1c0.1,0,0.1-0.1,0.2-0.1c0.1,0,0.1-0.1,0.1-0.1c0.1,0,0.1-0.1,0.1-0.1l0.1-0.1c0,0,0.1-0.1,0.1-0.1l0.1-0.1
		c0,0,0.1-0.1,0.1-0.1c0,0,0.1-0.1,0.1-0.1c0,0,0.1-0.1,0.1-0.1c0,0,0.1-0.1,0.1-0.1c0,0,0.1-0.1,0.1-0.1c0,0,0.1-0.1,0.1-0.1
		c0,0,0.1-0.1,0.1-0.1c0,0,0.1-0.1,0.1-0.1c0,0,0-0.1,0.1-0.1c0,0,0,0,0.1-0.1c0,0,0,0,0.1-0.1c0,0,0,0,0.1-0.1c0,0,0-0.1,0.1-0.1
		c0,0,0,0,0-0.1c0,0,0,0,0-0.1c0,0,0,0,0-0.1c0,0,0,0,0-0.1c0,0,0,0,0-0.1c0,0,0,0,0-0.1c0,0,0,0,0-0.1c0,0,0,0,0-0.1c0,0,0,0,0-0.1
		c0,0,0,0,0-0.1c0,0,0,0,0-0.1c0,0,0,0,0-0.1c0,0,0,0,0-0.1v0c0,0,0,0,0,0v-0.1c0,0,0,0,0,0v0c0,0,0,0,0,0c0,0,0,0,0,0c0,0,0,0,0,0
		c0,0,0,0,0,0c0,0,0,0,0,0c0,0,0,0,0,0c0,0,0,0,0,0c0,0,0,0,0,0c0,0,0,0,0,0c0,0,0,0,0,0c0,0,0,0,0,0s0,0,0,0c0,0,0,0,0,0
		c-0.6-0.3-4-2.4-5-2.7c-1-0.3-1.4-2.3-1.4-2.3c0-0.8-2.6-2.3-3.6-2.8c-0.2-0.1-0.3-0.2-0.5-0.2c-0.4-0.1-1.5-0.7-1-4
		c0,0,0.5-2.5-1-3c0,0-0.4,0.1,0,1.1c0.2,0.5-0.8,1.9-1.1,2.2c-0.5,0.6-1.1,1.1-1.5,1.8c-0.4,0.7-0.5,1.4-1.1,2
		c-0.6,0.5-1.2,1.1-1.7,1.7c-0.6,0.6-1,0.7-1.5,1.1c-1.8,1.1-2.3,3-3.2,4.8l-0.7,1.4C7,21,6.5,22,6.3,23c0,0.1-0.1,0.3-0.1,0.4
		c-0.1,0.8,0,1.6,0.1,2.4l-0.1-0.1c0,0-8.2-8.5-1.6-23.6h27.5C37.2,20.9,30.3,26.7,30.3,26.7z"/>
	<path class="st2" d="M30.9,19.5L30.9,19.5c0,0.1,0,0.1,0,0.1v0c0,0,0,0,0,0.1c0,0,0,0,0,0.1c0,0,0,0,0,0.1c0,0,0,0,0,0.1
		c0,0,0,0,0,0.1c0,0,0,0,0,0.1c0,0,0,0,0,0.1c0,0,0,0,0,0.1c0,0,0,0,0,0.1c0,0,0,0,0,0.1c0,0,0,0,0,0.1c0,0,0,0,0,0.1c0,0,0,0,0,0.1
		c0,0,0,0.1-0.1,0.1c0,0,0,0-0.1,0.1c0,0,0,0.1-0.1,0.1c0,0,0,0.1-0.1,0.1c0,0,0,0.1-0.1,0.1c0,0,0,0.1-0.1,0.1c0,0-0.1,0.1-0.1,0.1
		c0,0-0.1,0.1-0.1,0.1c0,0-0.1,0.1-0.1,0.1c0,0-0.1,0.1-0.1,0.1c0,0-0.1,0.1-0.1,0.1c0,0-0.1,0.1-0.1,0.1c0,0-0.1,0.1-0.1,0.1
		l-0.1,0.1c0,0-0.1,0.1-0.1,0.1l-0.1,0.1c0,0-0.1,0.1-0.1,0.1c0,0-0.1,0.1-0.1,0.1c-0.1,0-0.1,0.1-0.2,0.1c-0.1,0-0.1,0.1-0.2,0.1
		c-0.1,0-0.1,0.1-0.2,0.1c-0.1,0-0.1,0.1-0.2,0.1c-0.1,0-0.1,0.1-0.2,0.1c-0.1,0-0.1,0.1-0.2,0.1c-0.1,0-0.1,0.1-0.2,0.1
		c-0.1,0-0.1,0.1-0.2,0.1c-0.1,0-0.2,0.1-0.2,0.1c-0.1,0-0.1,0.1-0.2,0.1c-0.1,0-0.1,0.1-0.2,0.1c-0.6,0.2-1.3,0.3-2,0.2h0
		c-0.1,0-0.1,0-0.2-0.1c-0.1,0-0.1-0.1-0.2-0.1c0,0-0.1-0.1-0.1-0.1c-0.1-0.1-0.3-0.2-0.4-0.2c-0.8-0.4-1.7-0.7-2.4-1.2
		c-0.9-0.6-1.5-1.5-2.3-2.2c-0.4-0.3-0.8-0.6-1.3-0.8c-0.3-0.1-1.3-0.3-1.5-0.6c0.2,0.3,0.2,0.8,0.2,1.1c0.1,0.4,0.2,0.7,0.2,1.1
		c0.1,0.6,0.3,1.3,0.1,2c-0.2,0.8-1,0.7-1.6,1c-0.5,0.3-1,0.7-1.3,1.3c0,0-0.5,2.2-1.2,2.5c0,0-1.2,1-1.1,1.6
		c0.2,0.6,0.4,1.3,0.8,1.8c0.7,1,1.7,0.8,2.9,1c0.4,0.1,0.9,0.1,1.3,0.3c0.6,0.3,1.1,0.8,1.4,1.4c0.2,0.4,0.3,0.9,0.3,1.3
		c0,0.1,0,0.1,0,0.2c-0.1,1-0.8,1.8-1.2,2.7L6.3,25.9c-0.1-0.8-0.2-1.6-0.1-2.4c0-0.1,0.1-0.3,0.1-0.4c0.3-1,0.7-2,1.2-2.9l0.7-1.4
		c0.9-1.8,1.4-3.7,3.2-4.8c0.6-0.3,1-0.5,1.5-1.1c0.6-0.6,1.1-1.1,1.7-1.7c0.6-0.5,0.7-1.3,1.1-2c0.4-0.7,1-1.2,1.5-1.8
		c0.3-0.4,1.3-1.7,1.1-2.2c-0.4-1,0-1.1,0-1.1c1.4,0.4,1,3,1,3c-0.5,3.3,0.6,3.9,1,4c0.2,0,0.4,0.1,0.5,0.2c0.9,0.5,3.5,2,3.6,2.8
		c0,0,0.5,2,1.4,2.3c1,0.3,4.4,2.4,5,2.7c0,0,0,0,0,0c0,0,0,0,0,0s0,0,0,0c0,0,0,0,0,0c0,0,0,0,0,0c0,0,0,0,0,0c0,0,0,0,0,0
		c0,0,0,0,0,0c0,0,0,0,0,0c0,0,0,0,0,0c0,0,0,0,0,0c0,0,0,0,0,0C30.9,19.4,30.9,19.4,30.9,19.5L30.9,19.5
		C30.9,19.4,30.9,19.5,30.9,19.5z"/>
	<path class="st3" d="M30.8,19.1C30.8,19.1,30.8,19.1,30.8,19.1C30.8,19.1,30.8,19.1,30.8,19.1z"/>
	<path class="st3" d="M30.9,19.8C30.9,19.8,30.9,19.8,30.9,19.8C30.9,19.8,30.9,19.8,30.9,19.8z"/>
	<path class="st3" d="M30.8,19.2C30.8,19.2,30.8,19.2,30.8,19.2C30.8,19.2,30.8,19.2,30.8,19.2z"/>
	<path class="st3" d="M30.9,19.3C30.9,19.3,30.9,19.3,30.9,19.3C30.9,19.3,30.9,19.3,30.9,19.3z"/>
	<path class="st3" d="M30.9,19.7C30.9,19.7,30.9,19.7,30.9,19.7C30.9,19.7,30.9,19.7,30.9,19.7z"/>
	<path class="st3" d="M30.8,19.2C30.8,19.2,30.8,19.2,30.8,19.2C30.8,19.2,30.8,19.2,30.8,19.2z"/>
	<path class="st3" d="M30.8,19.1C30.8,19.1,30.8,19.2,30.8,19.1C30.8,19.2,30.8,19.1,30.8,19.1z"/>
	<path class="st3" d="M30.9,19.4C30.9,19.4,30.9,19.4,30.9,19.4C30.9,19.4,30.9,19.4,30.9,19.4z"/>
	<path class="st3" d="M30.9,19.5C30.9,19.5,30.9,19.5,30.9,19.5C30.9,19.5,30.9,19.5,30.9,19.5z"/>
	<path class="st3" d="M30.9,19.3C30.9,19.3,30.9,19.4,30.9,19.3C30.9,19.4,30.9,19.3,30.9,19.3z"/>
	<path class="st3" d="M30.9,19.6C30.9,19.6,30.9,19.6,30.9,19.6C30.9,19.6,30.9,19.6,30.9,19.6z"/>
	<path class="st3" d="M30.1,21C30.1,21,30,21,30.1,21C30,21,30.1,21,30.1,21z"/>
	<path class="st3" d="M27.5,22.6c-0.1,0-0.1,0.1-0.2,0.1C27.4,22.6,27.4,22.6,27.5,22.6z"/>
	<path class="st3" d="M27.9,22.4c-0.1,0-0.1,0.1-0.2,0.1C27.8,22.4,27.9,22.4,27.9,22.4z"/>
	<path class="st3" d="M28.3,22.2c-0.1,0-0.1,0.1-0.2,0.1C28.2,22.2,28.2,22.2,28.3,22.2z"/>
	<path class="st3" d="M28.6,22c-0.1,0-0.1,0.1-0.2,0.1C28.5,22,28.6,22,28.6,22z"/>
	<path class="st3" d="M29,21.8c0,0-0.1,0.1-0.1,0.1C28.9,21.9,28.9,21.8,29,21.8z"/>
	<path class="st3" d="M29.2,21.6c0,0-0.1,0.1-0.1,0.1C29.1,21.7,29.2,21.7,29.2,21.6z"/>
	<path class="st3" d="M27.1,22.7c-0.1,0-0.2,0.1-0.2,0.1C26.9,22.8,27,22.8,27.1,22.7z"/>
	<path class="st3" d="M24.7,23.2c0,0,0.1,0,0.1,0c0.6,0.1,1.2,0,1.8-0.2c0,0,0.1,0,0.1,0C26,23.2,25.3,23.2,24.7,23.2z"/>
	<path class="st3" d="M24.3,22.9c0.1,0.1,0.2,0.1,0.3,0.2c0,0,0.1,0,0.1,0c-0.1,0-0.1,0-0.2-0.1C24.4,23,24.3,23,24.3,22.9z"/>
	<path class="st3" d="M24.1,22.9c-0.1-0.1-0.2-0.2-0.4-0.2C23.9,22.7,24,22.8,24.1,22.9z"/>
	<path class="st3" d="M30.8,20C30.8,20,30.8,20,30.8,20C30.8,20,30.8,20,30.8,20z"/>
	<path class="st3" d="M30.6,20.4C30.6,20.4,30.6,20.4,30.6,20.4C30.6,20.4,30.6,20.4,30.6,20.4z"/>
	<path class="st3" d="M30.5,20.5C30.5,20.5,30.5,20.6,30.5,20.5C30.5,20.6,30.5,20.5,30.5,20.5z"/>
	<path class="st3" d="M30.7,20.2C30.7,20.3,30.7,20.3,30.7,20.2C30.7,20.3,30.7,20.3,30.7,20.2z"/>
	<path class="st3" d="M30.8,19.9C30.8,19.9,30.8,19.9,30.8,19.9C30.8,19.9,30.8,19.9,30.8,19.9z"/>
	<path class="st3" d="M30.7,20.1C30.7,20.1,30.7,20.1,30.7,20.1C30.7,20.1,30.7,20.1,30.7,20.1z"/>
	<path class="st3" d="M30.4,20.7C30.4,20.7,30.3,20.7,30.4,20.7C30.3,20.7,30.4,20.7,30.4,20.7z"/>
	<path class="st3" d="M29.7,21.3c0,0-0.1,0.1-0.1,0.1C29.6,21.3,29.7,21.3,29.7,21.3z"/>
	<path class="st3" d="M29.5,21.5c0,0-0.1,0.1-0.1,0.1C29.4,21.5,29.5,21.5,29.5,21.5z"/>
	<path class="st3" d="M29.9,21.1C29.9,21.1,29.9,21.2,29.9,21.1C29.9,21.2,29.9,21.1,29.9,21.1z"/>
	<path class="st3" d="M30.3,20.8C30.2,20.8,30.2,20.9,30.3,20.8C30.2,20.9,30.2,20.8,30.3,20.8z"/>
</g>
</svg>
